<?xml version="1.0" encoding="UTF-8"?>
<svg version="1.1" xmlns="http://www.w3.org/2000/svg" width="500" height="500">
<path d="M0 0 C9.75120793 3.78505892 18.07552437 10.34843786 26.3125 16.6875 C27.22185303 17.38447998 28.13120605 18.08145996 29.06811523 18.79956055 C36.60754076 24.61835645 43.89472114 30.6612467 51 37 C51.9178125 37.80695313 52.835625 38.61390625 53.78125 39.4453125 C60.62723976 45.57978085 67.16093003 52.0291398 73.6875 58.5 C74.56672119 59.36616943 75.44594238 60.23233887 76.35180664 61.12475586 C82.33618022 67.10125452 87.74141282 73.38104059 93 80 C94.24860712 81.5219771 95.49839136 83.04299027 96.75 84.5625 C106.46383088 96.77749691 115.22037658 109.47827357 123 123 C123.99638375 124.66883109 124.9949555 126.33637044 126 128 C126.58265625 126.97003906 127.1653125 125.94007813 127.765625 124.87890625 C136.05226799 110.41242297 145.36542255 96.84830582 156 84 C156.69351563 83.13375 157.38703125 82.2675 158.1015625 81.375 C166.9369159 70.38544383 176.58064802 60.31745399 186.5 50.3125 C187.36592773 49.43352051 188.23185547 48.55454102 189.12402344 47.64892578 C194.35435036 42.41170907 199.76734165 37.59419805 205.54443359 32.9675293 C207.49571366 31.40406081 209.40430901 29.81815574 211.28515625 28.171875 C243.59193548 0 243.59193548 0 252 0 C252.29679154 29.38484896 252.52674141 58.76959134 252.66384928 88.15563341 C252.68010778 91.62768386 252.69693403 95.09973133 252.71411133 98.57177734 C252.71922638 99.60857663 252.71922638 99.60857663 252.72444477 100.66632135 C252.78095819 111.84711941 252.88342531 123.02704539 253.00298635 134.2073267 C253.12471166 145.68603417 253.19582312 157.16412923 253.22315043 168.64346945 C253.24008993 175.08893107 253.27985225 181.53241735 253.37449074 187.97724533 C253.46289482 194.04682668 253.48992058 200.11362428 253.47039986 206.1837883 C253.47396938 208.40829617 253.4997411 210.63289936 253.54967117 212.85684967 C253.89881196 229.21367621 253.89881196 229.21367621 250.74495864 233.84165239 C247.32291239 237.40020016 243.31028019 239.62494171 239 242 C237.07418408 243.48268375 235.17273113 244.99832027 233.3125 246.5625 C231.9821875 247.65884766 231.9821875 247.65884766 230.625 248.77734375 C227.21085842 251.66818684 223.88367581 254.64574646 220.58203125 257.6640625 C219.16940459 258.94205152 217.75055264 260.21371969 216.30395508 261.453125 C210.79788686 266.17761002 205.62038122 271.19343706 200.49145508 276.32324219 C199.07331716 277.73919947 197.64703335 279.14698289 196.22070312 280.5546875 C190.80925393 285.95485501 185.78192269 291.49726837 181.03149414 297.48876953 C178.90045823 300.12304851 176.66369446 302.62713335 174.375 305.125 C158.21554922 322.95037355 144.8185191 343.7904289 132.20703125 364.2265625 C131.80871094 364.81179688 131.41039062 365.39703125 131 366 C130.67 366 130.34 366 130 366 C129.81300974 350.19697721 129.671993 334.39425366 129.58550262 318.59039879 C129.54427351 311.25210944 129.48807916 303.91450794 129.39648438 296.57666016 C129.31667554 290.17995257 129.26511814 283.78374313 129.24729204 277.3865515 C129.23687309 273.99983453 129.21244278 270.61454248 129.15415955 267.22828293 C129.0961453 263.44478345 129.08808481 259.6642432 129.09179688 255.88037109 C129.06303467 254.76115265 129.03427246 253.6419342 129.00463867 252.48880005 C129.08396892 245.02434693 129.08396892 245.02434693 131.77174377 242.01875687 C133.78439768 240.51594879 135.83878063 239.27271132 138 238 C140.94888712 234.49819654 141.48834698 231.57502471 141.28125 226.984375 C140.61749925 222.30124468 138.51872827 219.54285516 135.3125 216.1875 C131.41153216 213.61138916 128.64634739 212.70284988 124 213 C118.11969034 214.69432651 115.42807696 217.16036195 112 222 C110.31413742 227.05758775 110.44428559 230.71074256 112.5625 235.625 C114.24926673 238.39278324 115.75792145 239.49935821 118.60267639 240.97550964 C121.02089195 242.66672022 121.8709634 243.5137881 122.63616753 246.397089 C122.86407422 249.54031807 122.86530284 252.61593156 122.79467773 255.7668457 C122.79569992 256.95751144 122.79672211 258.14817719 122.79777527 259.37492371 C122.79373948 262.63156846 122.75869175 265.88609553 122.70975757 269.14231896 C122.66593573 272.54816968 122.66188165 275.95406406 122.65357971 279.3601532 C122.63184068 285.80609262 122.57442344 292.25119892 122.50413328 298.6967718 C122.42583427 306.03641248 122.38738966 313.37609339 122.35226524 320.71604788 C122.27913795 335.81116244 122.15605 350.90549782 122 366 C118.5269679 362.65485966 116.08490173 359.11968645 113.625 355 C99.93315677 332.62736668 83.83485171 311.83577459 66.14453125 292.48828125 C65 291 65 291 65 289 C64.01 288.67 63.02 288.34 62 288 C60.50097656 286.48413086 60.50097656 286.48413086 58.890625 284.52734375 C54.73757021 279.63671863 50.28732385 275.0957329 45.75 270.5625 C44.49147217 269.30409302 44.49147217 269.30409302 43.20751953 268.02026367 C38.11660857 262.97606282 32.98318131 258.23421182 27.328125 253.828125 C24.99539363 251.99638291 22.81414876 250.0626575 20.625 248.0625 C14.172568 242.25297336 7.22447588 236.81631725 0 232 C-0.29405657 228.91772806 -0.39081795 226.03649263 -0.36076355 222.95187378 C-0.36332682 222.00278078 -0.3658901 221.05368778 -0.36853105 220.07583439 C-0.37349698 216.87574488 -0.35692972 213.67612071 -0.34057617 210.47607422 C-0.33973051 208.19009411 -0.34020385 205.90411318 -0.34190369 203.61813354 C-0.34276743 197.39523918 -0.32508041 191.17251691 -0.30418181 184.94966269 C-0.28547803 178.45270749 -0.28366956 171.95574872 -0.28010559 165.45877075 C-0.27182885 154.54849159 -0.25306695 143.63827626 -0.22631836 132.72802734 C-0.19879255 121.48909828 -0.17755175 110.25018642 -0.16479492 99.01123047 C-0.16400675 98.31877294 -0.16321858 97.62631541 -0.16240653 96.91287433 C-0.15849149 93.43911117 -0.15470035 89.9653479 -0.15097082 86.49158454 C-0.11985711 57.6610144 -0.06678321 28.83050872 0 0 Z " fill="#FF7350" transform="translate(124,62)"/>
<path d="M0 0 C0 76.56 0 153.12 0 232 C-5.48745687 234.19498275 -10.85905167 236.33205158 -16.4140625 238.28051758 C-54.54365365 251.76650261 -121.53810497 281.07620995 -141 320 C-141.66 320 -142.32 320 -143 320 C-141.39749838 315.46248182 -139.05667584 311.60650102 -136.5 307.5625 C-135.83242676 306.50361572 -135.83242676 306.50361572 -135.15136719 305.42333984 C-124.30302872 288.3786812 -112.03555781 271.93236923 -98.109375 257.28515625 C-95.87991361 254.98970192 -95.87991361 254.98970192 -94 252 C-93.34 252 -92.68 252 -92 252 C-91.731875 251.401875 -91.46375 250.80375 -91.1875 250.1875 C-90.00082594 248.00152146 -88.90400887 246.58667406 -87 245 C-86.34 245 -85.68 245 -85 245 C-85 244.34 -85 243.68 -85 243 C-83.70703125 241.66015625 -83.70703125 241.66015625 -81.8125 240.0625 C-81.07515625 239.43859375 -80.3378125 238.8146875 -79.578125 238.171875 C-78.72734375 237.45515625 -77.8765625 236.7384375 -77 236 C-76.06671875 235.18015625 -75.1334375 234.3603125 -74.171875 233.515625 C-68.26941537 228.35476617 -62.18144111 223.51161859 -55.8125 218.9375 C-55.20349854 218.49188721 -54.59449707 218.04627441 -53.96704102 217.5871582 C-46.00712614 211.97819725 -37.61952108 207.78862282 -29 203 C-28.67 139.31 -28.34 75.62 -28 10 C-4.66666667 0 -4.66666667 0 0 0 Z " fill="#56AEFF" transform="translate(429,103)"/>
<path d="M0 0 C21 7 21 7 27 10 C27.33 73.69 27.66 137.38 28 203 C32.95 205.64 37.9 208.28 43 211 C45.82508228 212.77170263 48.54423911 214.51361526 51.25 216.4375 C51.91273926 216.90140137 52.57547852 217.36530273 53.25830078 217.84326172 C62.02944601 224.05128576 70.10690727 230.97212574 78.00390625 238.25 C79.88450675 240.04781979 79.88450675 240.04781979 82 241 C82 241.66 82 242.32 82 243 C82.85851562 243.37125 82.85851562 243.37125 83.734375 243.75 C86.35010611 245.19316199 88.14773456 246.88216222 90.25 249 C90.95640625 249.70125 91.6628125 250.4025 92.390625 251.125 C94 253 94 253 94 255 C94.66 255 95.32 255 96 255 C98.58216068 257.41531337 100.74382623 260.28416434 103 263 C103.45842285 263.54221191 103.9168457 264.08442383 104.38916016 264.64306641 C113.36384595 275.27121361 121.30108927 286.42390198 129 298 C129.80509482 299.19721677 130.61099865 300.39389018 131.41796875 301.58984375 C142 317.33384146 142 317.33384146 142 320 C141.34 320 140.68 320 140 320 C138.66015625 318.63671875 138.66015625 318.63671875 137.0625 316.6875 C129.6881919 308.04597125 121.6149748 300.3164894 112.67138672 293.31640625 C110.75883799 291.81005761 108.8666146 290.27965067 106.97265625 288.75 C76.41831926 264.28137162 38.16347602 242.54086901 0 233 C0 156.11 0 79.22 0 0 Z " fill="#56AEFF" transform="translate(72,103)"/>
<path d="M0 0 C20 1 20 1 27 3 C27.33 70.98 27.66 138.96 28 209 C36.58 211.64 45.16 214.28 54 217 C90.16142123 230.67297519 124.53988601 247.52323205 153.43212891 273.61328125 C154.5831484 274.63131157 155.75539621 275.62547034 156.93896484 276.60546875 C157.58172363 277.13785156 158.22448242 277.67023438 158.88671875 278.21875 C159.48057373 278.70279297 160.07442871 279.18683594 160.6862793 279.68554688 C162 281 162 281 162 283 C163.32 283.66 164.64 284.32 166 285 C166 285.66 166 286.32 166 287 C166.66 287 167.32 287 168 287 C169.7265625 288.75 169.7265625 288.75 171.625 291 C172.25664062 291.7425 172.88828125 292.485 173.5390625 293.25 C174.02117187 293.8275 174.50328125 294.405 175 295 C174.34 295.33 173.68 295.66 173 296 C171.1184082 295.01879883 171.1184082 295.01879883 168.80078125 293.45703125 C167.93316162 292.88364014 167.06554199 292.31024902 166.17163086 291.71948242 C165.22811768 291.09017822 164.28460449 290.46087402 163.3125 289.8125 C136.97208693 272.67726786 108.66482017 261.05257549 79 251 C78.13117188 250.70496582 77.26234375 250.40993164 76.3671875 250.10595703 C65.01395772 246.31920527 53.39869476 243.57824842 41.75 240.875 C40.6973848 240.62819489 40.6973848 240.62819489 39.62350464 240.37640381 C26.47842514 237.31309563 13.35754246 235.22625708 0 233 C0 156.11 0 79.22 0 0 Z " fill="#125875" transform="translate(20,142)"/>
<path d="M0 0 C0 76.56 0 153.12 0 232 C-4.30966894 233.23133398 -8.12369361 234.28618512 -12.46484375 235.0078125 C-65.64724192 244.16485376 -127.75975019 260.0068784 -170.24707031 294.96972656 C-170.82553711 295.3097168 -171.40400391 295.64970703 -172 296 C-172.99 295.67 -173.98 295.34 -175 295 C-173.21479439 292.99388266 -171.42241288 290.9951283 -169.625 289 C-169.11710937 288.42765625 -168.60921875 287.8553125 -168.0859375 287.265625 C-166.76495095 285.80558723 -165.38599201 284.39847843 -164 283 C-163.34 283 -162.68 283 -162 283 C-162 282.34 -162 281.68 -162 281 C-160.7421875 279.6953125 -160.7421875 279.6953125 -158.875 278.125 C-156.27291898 275.93258917 -153.70611337 273.73108146 -151.1953125 271.43359375 C-134.25829808 256.07087027 -114.29785658 244.34003794 -94 234 C-93.2786084 233.6297168 -92.5572168 233.25943359 -91.81396484 232.87792969 C-44.78540886 209 -44.78540886 209 -26 209 C-26 140.69 -26 72.38 -26 2 C-6 0 -6 0 0 0 Z " fill="#125875" transform="translate(480,142)"/>
<path d="" fill="#56AEFF" transform="translate(0,0)"/>
</svg>
